<svg xmlns="http://www.w3.org/2000/svg" viewBox="0 0 156 42.29"><path d="M0,16.94H.25c1.24,0,1.9-.71,1.9-2.16V3C2.15,1.59,1.49.88.25.88H0V.34H7.59V.88H7.34C6.09.88,5.43,1.59,5.43,3V14.86c0,1.44.49,1.71,1.47,1.71H8.76c2.72,0,3.82-1.27,4.58-4.28h.56l-.34,5.19H0Zm15.3.54h7.58v-.54h-.24c-1.25,0-1.91-.71-1.91-2.16V3c0-1.44.66-2.15,1.91-2.15h.24V.34H15.3V.88h.24c1.25,0,1.91.71,1.91,2.15V14.78c0,1.45-.66,2.16-1.91,2.16H15.3Zm8.36-8.57c0,6,3.89,8.91,8.25,8.91a9.28,9.28,0,0,0,4.33-1.15,1.54,1.54,0,0,1,.78-.22c.49,0,.88.36,1,1h.49V12.8c0-2.13.07-2.77,1.32-2.77h.24V9.5H33.3V10h.25c1.64,0,2.2.64,2.2,2.77v2.52A4.82,4.82,0,0,1,32,16.91c-3.18,0-4.67-2.81-4.67-8s1.64-8,5.26-8c2.69,0,4.57,2.27,5.31,5.09h.56V.34h-.56V.51c0,.44-.17.79-.64.79a1.91,1.91,0,0,1-.81-.25,8.33,8.33,0,0,0-4.06-1,8.65,8.65,0,0,0-8.76,8.91M41,17.48h7.59v-.54h-.25c-1.24,0-1.91-.71-1.91-2.16v-6h6.69v6c0,1.45-.66,2.16-1.91,2.16H51v.54h7.59v-.54h-.25c-1.24,0-1.9-.71-1.9-2.16V3c0-1.44.66-2.15,1.9-2.15h.25V.34H51V.88h.25c1.25,0,1.91.71,1.91,2.15V7.88H46.47V3c0-1.44.67-2.15,1.91-2.15h.25V.34H41V.88h.25c1.24,0,1.91.71,1.91,2.15V14.78c0,1.45-.67,2.16-1.91,2.16H41Zm22.57,0H71.2v-.54H71c-1.25,0-1.91-.71-1.91-2.16V2.18c0-.66.32-.93.89-.93h.61c2.15,0,3.25,1.22,3.52,3.55h.47V.34H60.28V4.8h.47c.27-2.33,1.37-3.55,3.52-3.55h.61c.57,0,.88.27.88.93v12.6c0,1.45-.66,2.16-1.9,2.16h-.25Zm12.66,0h7.59v-.54h-.25c-1.25,0-1.91-.71-1.91-2.16v-6h6.68v6c0,1.45-.66,2.16-1.9,2.16h-.25v.54h7.59v-.54h-.25c-1.25,0-1.91-.71-1.91-2.16V3c0-1.44.66-2.15,1.91-2.15h.25V.34H86.23V.88h.25c1.24,0,1.9.71,1.9,2.15V7.88H81.7V3c0-1.44.66-2.15,1.91-2.15h.25V.34H76.27V.88h.24c1.25,0,1.91.71,1.91,2.15V14.78c0,1.45-.66,2.16-1.91,2.16h-.24ZM94.33,8.91a8.64,8.64,0,1,0,17.28,0,8.64,8.64,0,1,0-17.28,0m13.58,0c0,5.24-1.91,8-4.94,8S98,14.15,98,8.91s1.9-8,4.94-8,4.94,2.76,4.94,8m6.33,2.23c0,4.7,3.28,6.68,7,6.68s5.77-2.43,5.77-6V3c0-1.45.66-2.16,1.91-2.16h.24V.34H124V.88h.25c1.25,0,1.9.71,1.9,2.16v8.81c0,3-1.51,4.74-4.25,4.74-3,0-4.33-1.71-4.33-4.57V3c0-1.45.65-2.16,1.9-2.16h.25V.34h-7.59V.88h.25c1.24,0,1.91.71,1.91,2.16v8.1m17.48,5.45a6.58,6.58,0,0,0,3.89,1.23,5.43,5.43,0,0,0,5.63-5.41c0-2.45-1.32-3.87-4.29-5-2.56-1-4.2-2.21-4.2-4A2.47,2.47,0,0,1,135.44.91c2.2,0,3.82,1.71,4.28,4.38h.59V.34h-.59V.51c0,.4-.22.62-.49.62a1,1,0,0,1-.49-.15,6.27,6.27,0,0,0-3.33-1c-3,0-5.43,1.81-5.43,4.77,0,2.47,1.47,4.11,4.21,5.24,2.5,1,4.16,2,4.16,4a2.74,2.74,0,0,1-2.89,2.89c-2.4,0-4.4-2.4-5-5.36h-.59v5.93h.59c0-.74.29-1.08.66-1.08a1.1,1.1,0,0,1,.59.19m10.57.89h13.37l.34-4.66h-.59a4.23,4.23,0,0,1-4.65,3.75H149.2c-1,0-1.47-.27-1.47-1.71V9.3h2.67A2.64,2.64,0,0,1,153,12.24h.59V5.46H153a2.63,2.63,0,0,1-2.59,2.93h-2.67V3c0-1.44.49-1.71,1.47-1.71h2c2.54,0,3.47,1.27,3.67,3.5h.59V.34H142.29V.88h.25c1.25,0,1.91.71,1.91,2.15V14.78c0,1.45-.66,2.16-1.91,2.16h-.25ZM0,42H7.59v-.54H7.34c-1.25,0-1.91-.71-1.91-2.15V34.19H6.71l3.59,7a1.42,1.42,0,0,0,.88.76h4v-.54a2.85,2.85,0,0,1-1.9-1.59l-3.11-6c2.32-.69,3.89-2.21,3.89-4.43,0-3.06-2.65-4.58-6.66-4.58H0v.54H.24c1.25,0,1.91.71,1.91,2.15V39.26c0,1.44-.66,2.15-1.91,2.15H0Zm5.43-8.66V27.51c0-1.44.49-1.79,1.59-1.79h.66c2.23,0,3.28,1.57,3.28,3.63,0,2.27-1.41,3.94-4.67,3.94ZM16.91,42H30.27l.34-4.65H30a4.24,4.24,0,0,1-4.66,3.75H23.81c-1,0-1.47-.27-1.47-1.72V33.78H25a2.63,2.63,0,0,1,2.59,2.93h.59V29.93H27.6A2.64,2.64,0,0,1,25,32.87H22.34V27.44c0-1.45.49-1.72,1.47-1.72h2c2.55,0,3.48,1.28,3.67,3.5h.59v-4.4H16.91v.54h.24c1.25,0,1.91.71,1.91,2.15V39.26c0,1.44-.66,2.15-1.91,2.15h-.24Zm15.43,0h7.59v-.54h-.25c-1.24,0-1.91-.71-1.91-2.15v-4h1.55c4,0,7.39-1.62,7.39-5.29,0-3.5-3.21-5.11-7.1-5.11H32.34v.54h.25c1.24,0,1.9.71,1.9,2.15V39.26c0,1.44-.66,2.15-1.9,2.15h-.25Zm5.43-7.64V27.44c0-1.45.49-1.72,1.57-1.72,2.62,0,4.09,1.35,4.09,4.21s-1.54,4.38-4.58,4.38Zm10.46-.93a8.64,8.64,0,1,0,17.28,0,8.64,8.64,0,1,0-17.28,0m13.59,0c0,5.24-1.91,8-5,8s-4.94-2.77-4.94-8,1.91-8,4.94-8,5,2.77,5,8M65.94,42h7.59v-.54h-.25c-1.25,0-1.91-.71-1.91-2.15V34.19h1.27l3.6,7a1.42,1.42,0,0,0,.88.76h4v-.54a2.89,2.89,0,0,1-1.91-1.59l-3.11-6c2.33-.69,3.9-2.21,3.9-4.43,0-3.06-2.65-4.58-6.66-4.58H65.94v.54h.24c1.25,0,1.91.71,1.91,2.15V39.26c0,1.44-.66,2.15-1.91,2.15h-.24Zm5.43-8.66V27.51c0-1.44.49-1.79,1.59-1.79h.66c2.23,0,3.28,1.57,3.28,3.63,0,2.27-1.42,3.94-4.67,3.94ZM85.05,42h7.59v-.54h-.25c-1.25,0-1.91-.71-1.91-2.15V26.65c0-.66.32-.93.88-.93H92c2.16,0,3.26,1.23,3.53,3.55H96V24.82H81.72v4.45h.46c.27-2.32,1.38-3.55,3.53-3.55h.61c.56,0,.88.27.88.93V39.26c0,1.44-.66,2.15-1.91,2.15h-.24Zm14.36-.88a6.64,6.64,0,0,0,3.89,1.22,5.42,5.42,0,0,0,5.63-5.41c0-2.44-1.32-3.86-4.29-5-2.56-1.05-4.2-2.2-4.2-4a2.48,2.48,0,0,1,2.69-2.47c2.2,0,3.82,1.71,4.28,4.38H108V24.82h-.59V25c0,.39-.22.61-.49.61a1,1,0,0,1-.49-.15,6.26,6.26,0,0,0-3.33-1c-3,0-5.43,1.81-5.43,4.77,0,2.47,1.47,4.11,4.21,5.24,2.5,1,4.16,2,4.16,4a2.75,2.75,0,0,1-2.89,2.89c-2.4,0-4.4-2.4-5-5.36h-.59V42h.59c0-.73.29-1.08.66-1.08a1,1,0,0,1,.59.2" fill="#030404"/></svg>